#VRML V1.0 ascii

Separator
{
	Coordinate3
	{
		point
		[
			11662.359375 -13271.801758 243.853867,
			11720.275391 -13152.921875 246.902069,
			11711.130859 -13149.874023 246.902069,
			11711.130859 -13149.874023 246.902069,
			11656.263672 -13268.752930 243.853867,
			11662.359375 -13271.801758 243.853867,
		]
	}
	MaterialBinding
	{
		value PER_FACE
	}
	Material
	{
		diffuseColor
		[
			0.000000 1.000000 0.000000, 
			1.000000 0.000000 0.000000, 
		]
		transparency[0.000000]
	}
	IndexedFaceSet
	{
		coordIndex
		[
			0,1,2,-1, 
			3,4,5,-1, 
		]
	}
}
Separator
{
	Coordinate3
	{
		point
		[
			12506.707031 -9796.870117 853.491211,
			12540.237305 -9626.170898 859.587708,
			12531.092773 -9626.170898 859.587708,
			12531.092773 -9455.472656 865.684082,
			12531.092773 -9626.170898 859.587708,
			12540.237305 -9626.170898 859.587708,
			12540.237305 -9455.472656 865.684082,
		]
	}
	MaterialBinding
	{
		value PER_FACE
	}
	Material
	{
		diffuseColor
		[
			1.000000 0.000000 0.000000, 
			0.000000 1.000000 0.000000, 			0.000000 1.000000 0.000000, 
		]
		transparency[0.000000]
	}
	IndexedFaceSet
	{
		coordIndex
		[
			0,1,2,-1, 
			3,4,5,-1, 3,5,6,-1, 
		]
	}
}
Separator
{
	Coordinate3
	{
		point
		[
			1109.539673 -1990.465576 256.046661,
			1109.539673 -1990.465576 325.901276,
			1115.636108 -2200.790283 325.901276,
			1115.636108 -2200.790283 256.046661,
			1115.636108 -2200.790283 256.046661,
			1115.636108 -2200.790283 225.564774,
			1109.539673 -1990.465576 225.564774,
			1109.539673 -1990.465576 256.046661,
			1115.636108 -2200.790283 225.564774,
			1115.636108 -2200.790283 256.046661,
			1109.539673 -1990.465576 256.046661,
			1109.539673 -1990.465576 225.564774,
			1109.539673 -1990.465576 325.901276,
			1109.539673 -1990.465576 256.046661,
			1115.636108 -2200.790283 256.046661,
			1115.636108 -2200.790283 325.901276,
		]
	}
	MaterialBinding
	{
		value PER_FACE
	}
	Material
	{
		diffuseColor
		[
			0.000000 1.000000 0.000000, 			0.000000 1.000000 0.000000, 
			1.000000 0.000000 0.000000, 			1.000000 0.000000 0.000000, 
			1.000000 0.000000 0.000000, 			1.000000 0.000000 0.000000, 
			0.000000 1.000000 0.000000, 			0.000000 1.000000 0.000000, 
		]
		transparency[0.000000]
	}
	IndexedFaceSet
	{
		coordIndex
		[
			0,1,2,-1, 0,2,3,-1, 
			4,5,6,-1, 4,6,7,-1, 
			8,9,10,-1, 8,10,11,-1, 
			12,13,14,-1, 12,14,15,-1, 
		]
	}
}
Separator
{
	Coordinate3
	{
		point
		[
			1725.266846 -6980.822754 271.287598,
			1402.582642 -6333.109375 271.557678,
			1368.635498 -6336.290039 271.557678,
			1713.761597 -7022.631836 271.287598,
			1725.266846 -6980.822754 271.287598,
			1713.761597 -7022.631836 271.287598,
			1792.333496 -6983.395020 271.287598,
		]
	}
	MaterialBinding
	{
		value PER_FACE
	}
	Material
	{
		diffuseColor
		[
			0.000000 1.000000 0.000000, 			0.000000 1.000000 0.000000, 
			1.000000 0.000000 0.000000, 
		]
		transparency[0.000000]
	}
	IndexedFaceSet
	{
		coordIndex
		[
			0,1,2,-1, 0,2,3,-1, 
			4,5,6,-1, 
		]
	}
}
Separator
{
	Coordinate3
	{
		point
		[
			1402.582642 -6333.109375 271.557678,
			1597.249512 -5761.071289 271.287598,
			1575.912109 -5736.686035 271.287598,
			1368.635498 -6336.290039 271.557678,
			1740.514282 -5724.493164 271.287598,
			1700.887939 -5703.155762 271.287598,
			1575.912109 -5736.686035 271.287598,
			1597.249512 -5761.071289 271.287598,
		]
	}
	MaterialBinding
	{
		value PER_FACE
	}
	Material
	{
		diffuseColor
		[
			0.000000 1.000000 0.000000, 			0.000000 1.000000 0.000000, 
			1.000000 0.000000 0.000000, 			1.000000 0.000000 0.000000, 
		]
		transparency[0.000000]
	}
	IndexedFaceSet
	{
		coordIndex
		[
			0,1,2,-1, 0,2,3,-1, 
			4,5,6,-1, 4,6,7,-1, 
		]
	}
}
Separator
{
	Coordinate3
	{
		point
		[
			8165.303223 -4385.374023 1372.957397,
			7772.943848 -4292.119629 1591.761963,
			7774.232422 -4290.749023 1371.347046,
			7769.474121 -4289.561035 1366.485596,
			8170.509277 -4386.596191 1368.135376,
			8165.303223 -4385.374023 1372.957397,
			7774.232422 -4290.749023 1371.347046,
		]
	}
	MaterialBinding
	{
		value PER_FACE
	}
	Material
	{
		diffuseColor
		[
			0.000000 1.000000 0.000000, 
			1.000000 0.000000 0.000000, 			1.000000 0.000000 0.000000, 
		]
		transparency[0.000000]
	}
	IndexedFaceSet
	{
		coordIndex
		[
			0,1,2,-1, 
			3,4,5,-1, 3,5,6,-1, 
		]
	}
}
Separator
{
	Coordinate3
	{
		point
		[
			-11617.568359 12089.726563 359.993347,
			-11323.701172 11890.290039 353.643707,
			-11488.219727 11816.292969 353.643707,
			-11617.568359 12089.726563 359.993347,
			-11488.219727 11816.292969 353.643707,
			-11498.507813 11811.133789 353.643707,
			-11625.394531 12093.765625 360.144287,
		]
	}
	MaterialBinding
	{
		value PER_FACE
	}
	Material
	{
		diffuseColor
		[
			0.000000 1.000000 0.000000, 
			1.000000 0.000000 0.000000, 			1.000000 0.000000 0.000000, 
		]
		transparency[0.000000]
	}
	IndexedFaceSet
	{
		coordIndex
		[
			0,1,2,-1, 
			3,4,5,-1, 3,5,6,-1, 
		]
	}
}
Separator
{
	Coordinate3
	{
		point
		[
			-7239.881348 11375.703125 33.530354,
			-7478.678223 11111.641602 33.132462,
			-7169.379395 11297.763672 33.530354,
			-7437.993164 11048.741211 33.132462,
			-7478.678223 11111.641602 33.132462,
			-7505.962402 11081.555664 33.069908,
		]
	}
	MaterialBinding
	{
		value PER_FACE
	}
	Material
	{
		diffuseColor
		[
			0.000000 1.000000 0.000000, 
			1.000000 0.000000 0.000000, 
		]
		transparency[0.000000]
	}
	IndexedFaceSet
	{
		coordIndex
		[
			0,1,2,-1, 
			3,4,5,-1, 
		]
	}
}
Separator
{
	Coordinate3
	{
		point
		[
			-6459.105957 11845.250977 121.928169,
			-6082.394531 11897.625000 121.900345,
			-6080.639160 12117.728516 121.900345,
			-6175.744141 12169.154297 121.928169,
			-6462.154297 12384.778320 121.928169,
			-6460.087891 12019.056641 121.928169,
			-6261.113770 12137.687500 121.928169,
			-6462.154297 12384.778320 121.928169,
			-6261.113770 12137.687500 121.928169,
			-6175.744141 12169.154297 121.928169,
		]
	}
	MaterialBinding
	{
		value PER_FACE
	}
	Material
	{
		diffuseColor
		[
			0.000000 1.000000 0.000000, 			0.000000 1.000000 0.000000, 
			1.000000 0.000000 0.000000, 
			1.000000 0.000000 0.000000, 
		]
		transparency[0.000000]
	}
	IndexedFaceSet
	{
		coordIndex
		[
			0,1,2,-1, 0,2,3,-1, 
			4,5,6,-1, 
			7,8,9,-1, 
		]
	}
}
Separator
{
	Coordinate3
	{
		point
		[
			-2022.131226 11314.722656 36.579029,
			-2011.802734 11384.974609 36.579029,
			-2268.909912 11379.859375 33.530354,
			-2275.006104 11334.136719 33.530354,
			-2022.131226 11314.722656 36.579029,
			-2268.909912 11379.859375 33.530354,
		]
	}
	MaterialBinding
	{
		value PER_FACE
	}
	Material
	{
		diffuseColor
		[
			0.000000 1.000000 0.000000, 
			1.000000 0.000000 0.000000, 
		]
		transparency[0.000000]
	}
	IndexedFaceSet
	{
		coordIndex
		[
			0,1,2,-1, 
			3,4,5,-1, 
		]
	}
}
Separator
{
	Coordinate3
	{
		point
		[
			2825.668457 10833.252930 204.228455,
			2789.090088 10930.794922 204.228455,
			2456.837891 10696.084961 204.228455,
			2789.090088 10930.794922 204.228455,
			2825.668457 10833.252930 204.228455,
			2834.812988 10836.300781 204.228455,
			2795.186523 10933.842773 204.228455,
			2725.078369 11028.336914 204.228455,
			2789.090088 10930.794922 204.228455,
			2795.186523 10933.842773 204.228455,
			2731.383301 11033.176758 204.228455,
		]
	}
	MaterialBinding
	{
		value PER_FACE
	}
	Material
	{
		diffuseColor
		[
			0.000000 1.000000 0.000000, 
			0.000000 1.000000 0.000000, 			0.000000 1.000000 0.000000, 
			1.000000 0.000000 0.000000, 			1.000000 0.000000 0.000000, 
		]
		transparency[0.000000]
	}
	IndexedFaceSet
	{
		coordIndex
		[
			0,1,2,-1, 
			3,4,5,-1, 3,5,6,-1, 
			7,8,9,-1, 7,9,10,-1, 
		]
	}
}
Separator
{
	Coordinate3
	{
		point
		[
			-13165.115234 8601.980469 213.373672,
			-12814.721680 8625.042969 91.445404,
			-13058.566406 8608.989258 91.445404,
			-13165.115234 8601.980469 213.373672,
			-13058.566406 8608.989258 91.445404,
			-13058.566406 8608.989258 60.963524,
			-13165.115234 8601.980469 60.963524,
			-13058.566406 8608.989258 91.445404,
			-12814.721680 8625.042969 91.445404,
			-12814.721680 8625.042969 60.963524,
			-13058.566406 8608.989258 60.963524,
			-12814.721680 8625.042969 91.445404,
			-13165.115234 8601.980469 213.373672,
			-13058.566406 8608.989258 91.445404,
			-13058.566406 8608.989258 91.445404,
			-13165.115234 8601.980469 213.373672,
			-13165.115234 8601.980469 60.963524,
			-13058.566406 8608.989258 60.963524,
			-12814.721680 8625.042969 91.445404,
			-13058.566406 8608.989258 91.445404,
			-13058.566406 8608.989258 60.963524,
			-12814.721680 8625.042969 60.963524,
		]
	}
	MaterialBinding
	{
		value PER_FACE
	}
	Material
	{
		diffuseColor
		[
			0.000000 1.000000 0.000000, 
			1.000000 0.000000 0.000000, 			1.000000 0.000000 0.000000, 
			0.000000 1.000000 0.000000, 			0.000000 1.000000 0.000000, 
			0.000000 1.000000 0.000000, 
			1.000000 0.000000 0.000000, 			1.000000 0.000000 0.000000, 
			0.000000 1.000000 0.000000, 			0.000000 1.000000 0.000000, 
		]
		transparency[0.000000]
	}
	IndexedFaceSet
	{
		coordIndex
		[
			0,1,2,-1, 
			3,4,5,-1, 3,5,6,-1, 
			7,8,9,-1, 7,9,10,-1, 
			11,12,13,-1, 
			14,15,16,-1, 14,16,17,-1, 
			18,19,20,-1, 18,20,21,-1, 
		]
	}
}
Separator
{
	Coordinate3
	{
		point
		[
			2444.645264 11180.746094 243.853867,
			2121.537354 11293.529297 222.518433,
			2121.537354 11293.529297 192.036530,
			2444.645264 11180.746094 198.132019,
			2121.537354 11293.529297 222.518433,
			2444.645264 11180.746094 243.853867,
			2121.537354 11293.529297 237.757492,
			2115.986328 11295.442383 222.331833,
			2121.537354 11293.529297 192.036530,
			2121.537354 11293.529297 222.518433,
			2121.537354 11293.529297 222.518433,
			2444.645264 11180.746094 243.853867,
			2444.645264 11180.746094 198.132019,
			2121.537354 11293.529297 192.036530,
			2444.645264 11180.746094 243.853867,
			2121.537354 11293.529297 222.518433,
			2121.537354 11293.529297 237.757492,
			2121.537354 11293.529297 192.036530,
			2115.986328 11295.442383 222.331833,
			2121.537354 11293.529297 222.518433,
		]
	}
	MaterialBinding
	{
		value PER_FACE
	}
	Material
	{
		diffuseColor
		[
			0.000000 1.000000 0.000000, 			0.000000 1.000000 0.000000, 
			0.000000 1.000000 0.000000, 
			1.000000 0.000000 0.000000, 
			0.000000 1.000000 0.000000, 			0.000000 1.000000 0.000000, 
			0.000000 1.000000 0.000000, 
			1.000000 0.000000 0.000000, 
		]
		transparency[0.000000]
	}
	IndexedFaceSet
	{
		coordIndex
		[
			0,1,2,-1, 0,2,3,-1, 
			4,5,6,-1, 
			7,8,9,-1, 
			10,11,12,-1, 10,12,13,-1, 
			14,15,16,-1, 
			17,18,19,-1, 
		]
	}
}
Separator
{
	Coordinate3 { point[3406.195068 -18231.517578 -720.174377, 9320.544922 -13116.684570 -720.161926, 10543.299805 -12059.225586 265.263153, 11094.187500 -11582.807617 1706.983276, 11094.187500 -11582.807617 5118.241699, 10377.712891 -12202.426758 5118.868164, 6488.972656 -15565.477539 5122.267578, 3482.920654 -18165.164063 5124.895020, 3352.639160 -18277.833984 5124.426270, 3352.639160 -18277.833984 -720.161865] }
	MaterialBinding { value PER_FACE }
	Material { diffuseColor[1.000000 1.000000 0.000000] transparency[0.000000] }
	IndexedFaceSet { coordIndex[0,1,2,3,4,5,6,7,8,9,-1] }
}
Separator
{
	Coordinate3 { point[-13890.585938 9056.160156 609.636353, -13890.585938 9056.160156 8.584878, -12942.598633 -768.142944 609.636353] }
	MaterialBinding { value PER_FACE }
	Material { diffuseColor[0.000000 1.000000 1.000000] transparency[0.000000] }
	IndexedFaceSet { coordIndex[0,1,2,-1] }
}
Separator
{
	Coordinate3 { point[-13890.585938 9056.160156 8.584878, -12942.598633 -768.142944 8.584878, -12942.598633 -768.142944 609.636353] }
	MaterialBinding { value PER_FACE }
	Material { diffuseColor[0.000000 1.000000 1.000000] transparency[0.000000] }
	IndexedFaceSet { coordIndex[0,1,2,-1] }
}
